# xmcd
#
# Track frame offsets:
#	150
#	19209
#	42700
#	57919
#	73398
#	96638
#	120696
#	147046
#	162409
#	183470
#	206416
#	221953
#	237989
#	263572
#	285488
#
# Disc length: 3952 seconds
# Revision: 1
# Processed by: cddbd v1.5.2PL0 Copyright (c) Steve Scherf et al.
# Submitted via: dBpowerAMP V12.0
#
DISCID=f10f6e0f
DTITLE=Lamont Cranston Band - Lamont Cranston Band With Bruce McCabe
DYEAR=2012
DGENRE=Blues
TTITLE0=Look Down
TTITLE1=Help Your Brother
TTITLE2=I Wanna See
TTITLE3=500 Dollars
TTITLE4=Shouda Wouda Couda
TTITLE5='59 Cadillac
TTITLE6=Prisoner
TTITLE7=Weasel In The Hen House
TTITLE8=My Hair Is Gone
TTITLE9=Big Money
TTITLE10=Lion And The Lamb
TTITLE11=Bullfrog Boogie Woogie
TTITLE12=Big Money Man
TTITLE13=Talkin Catfish
TTITLE14=Bustin These Chains
EXTD=
EXTT0=
EXTT1=
EXTT2=
EXTT3=
EXTT4=
EXTT5=
EXTT6=
EXTT7=
EXTT8=
EXTT9=
EXTT10=
EXTT11=
EXTT12=
EXTT13=
EXTT14=
PLAYORDER=
